<mxfile host="65bd71144e">
    <diagram name="Page-1" id="UW5ev72W2ap2WYYPYnsc">
        <mxGraphModel dx="4698" dy="2304" grid="1" gridSize="10" guides="1" tooltips="1" connect="1" arrows="1" fold="1" page="1" pageScale="1" pageWidth="827" pageHeight="1169" math="0" shadow="0">
            <root>
                <mxCell id="0"/>
                <mxCell id="1" parent="0"/>
                <mxCell id="iXq1CX7b5IGds2Jhsc0Z-1" value="VM3DIR_Vendeglatas" style="ellipse;whiteSpace=wrap;html=1;" parent="1" vertex="1">
                    <mxGeometry x="360" y="80" width="120" height="80" as="geometry"/>
                </mxCell>
                <mxCell id="iXq1CX7b5IGds2Jhsc0Z-2" value="Gyakornok" style="ellipse;whiteSpace=wrap;html=1;" parent="1" vertex="1">
                    <mxGeometry x="600" y="200" width="120" height="80" as="geometry"/>
                </mxCell>
                <mxCell id="iXq1CX7b5IGds2Jhsc0Z-3" value="Szakacs" style="ellipse;whiteSpace=wrap;html=1;" parent="1" vertex="1">
                    <mxGeometry x="120" y="205" width="120" height="80" as="geometry"/>
                </mxCell>
                <mxCell id="iXq1CX7b5IGds2Jhsc0Z-4" value="Foszakacs" style="ellipse;whiteSpace=wrap;html=1;" parent="1" vertex="1">
                    <mxGeometry x="-360" y="200" width="120" height="80" as="geometry"/>
                </mxCell>
                <mxCell id="iXq1CX7b5IGds2Jhsc0Z-5" value="Vendeg" style="ellipse;whiteSpace=wrap;html=1;" parent="1" vertex="1">
                    <mxGeometry x="1080" y="200" width="120" height="80" as="geometry"/>
                </mxCell>
                <mxCell id="iXq1CX7b5IGds2Jhsc0Z-6" value="Rendeles" style="ellipse;whiteSpace=wrap;html=1;" parent="1" vertex="1">
                    <mxGeometry x="1519.5" y="198.75" width="120" height="80" as="geometry"/>
                </mxCell>
                <mxCell id="iXq1CX7b5IGds2Jhsc0Z-22" value="" style="edgeStyle=orthogonalEdgeStyle;rounded=0;orthogonalLoop=1;jettySize=auto;html=1;endArrow=none;endFill=0;" parent="1" source="iXq1CX7b5IGds2Jhsc0Z-7" target="iXq1CX7b5IGds2Jhsc0Z-21" edge="1">
                    <mxGeometry relative="1" as="geometry"/>
                </mxCell>
                <mxCell id="iXq1CX7b5IGds2Jhsc0Z-7" value="Etterem" style="ellipse;whiteSpace=wrap;html=1;" parent="1" vertex="1">
                    <mxGeometry x="-840" y="200" width="120" height="80" as="geometry"/>
                </mxCell>
                <mxCell id="iXq1CX7b5IGds2Jhsc0Z-9" value="Etterem" style="ellipse;whiteSpace=wrap;html=1;" parent="1" vertex="1">
                    <mxGeometry x="-835" y="205" width="110" height="70" as="geometry"/>
                </mxCell>
                <mxCell id="iXq1CX7b5IGds2Jhsc0Z-10" value="Foszakacs" style="ellipse;whiteSpace=wrap;html=1;" parent="1" vertex="1">
                    <mxGeometry x="-355" y="205" width="110" height="70" as="geometry"/>
                </mxCell>
                <mxCell id="iXq1CX7b5IGds2Jhsc0Z-11" value="Szakacs" style="ellipse;whiteSpace=wrap;html=1;" parent="1" vertex="1">
                    <mxGeometry x="125" y="210" width="110" height="70" as="geometry"/>
                </mxCell>
                <mxCell id="iXq1CX7b5IGds2Jhsc0Z-12" value="Gyakornok" style="ellipse;whiteSpace=wrap;html=1;" parent="1" vertex="1">
                    <mxGeometry x="605" y="205" width="110" height="70" as="geometry"/>
                </mxCell>
                <mxCell id="iXq1CX7b5IGds2Jhsc0Z-13" value="Vendeg" style="ellipse;whiteSpace=wrap;html=1;" parent="1" vertex="1">
                    <mxGeometry x="1085" y="205" width="110" height="70" as="geometry"/>
                </mxCell>
                <mxCell id="iXq1CX7b5IGds2Jhsc0Z-14" value="Rendeles" style="ellipse;whiteSpace=wrap;html=1;" parent="1" vertex="1">
                    <mxGeometry x="1524.5" y="203.75" width="110" height="70" as="geometry"/>
                </mxCell>
                <mxCell id="iXq1CX7b5IGds2Jhsc0Z-15" value="" style="endArrow=none;html=1;rounded=0;exitX=0.5;exitY=0;exitDx=0;exitDy=0;entryX=0.5;entryY=1;entryDx=0;entryDy=0;" parent="1" source="iXq1CX7b5IGds2Jhsc0Z-3" target="iXq1CX7b5IGds2Jhsc0Z-1" edge="1">
                    <mxGeometry width="50" height="50" relative="1" as="geometry">
                        <mxPoint x="300" y="190" as="sourcePoint"/>
                        <mxPoint x="350" y="140" as="targetPoint"/>
                        <Array as="points"/>
                    </mxGeometry>
                </mxCell>
                <mxCell id="iXq1CX7b5IGds2Jhsc0Z-16" value="" style="endArrow=none;html=1;rounded=0;exitX=0.5;exitY=0;exitDx=0;exitDy=0;entryX=0.5;entryY=1;entryDx=0;entryDy=0;" parent="1" source="iXq1CX7b5IGds2Jhsc0Z-4" target="iXq1CX7b5IGds2Jhsc0Z-1" edge="1">
                    <mxGeometry width="50" height="50" relative="1" as="geometry">
                        <mxPoint x="180" y="192" as="sourcePoint"/>
                        <mxPoint x="258" y="140" as="targetPoint"/>
                        <Array as="points"/>
                    </mxGeometry>
                </mxCell>
                <mxCell id="iXq1CX7b5IGds2Jhsc0Z-17" value="" style="endArrow=none;html=1;rounded=0;exitX=0.5;exitY=0;exitDx=0;exitDy=0;" parent="1" source="iXq1CX7b5IGds2Jhsc0Z-7" edge="1">
                    <mxGeometry width="50" height="50" relative="1" as="geometry">
                        <mxPoint x="180" y="220" as="sourcePoint"/>
                        <mxPoint x="420" y="160" as="targetPoint"/>
                        <Array as="points"/>
                    </mxGeometry>
                </mxCell>
                <mxCell id="iXq1CX7b5IGds2Jhsc0Z-18" value="" style="endArrow=none;html=1;rounded=0;entryX=0.5;entryY=0;entryDx=0;entryDy=0;" parent="1" target="iXq1CX7b5IGds2Jhsc0Z-6" edge="1">
                    <mxGeometry width="50" height="50" relative="1" as="geometry">
                        <mxPoint x="420" y="160" as="sourcePoint"/>
                        <mxPoint x="850" y="180" as="targetPoint"/>
                        <Array as="points"/>
                    </mxGeometry>
                </mxCell>
                <mxCell id="iXq1CX7b5IGds2Jhsc0Z-19" value="" style="endArrow=none;html=1;rounded=0;entryX=0.5;entryY=0;entryDx=0;entryDy=0;" parent="1" target="iXq1CX7b5IGds2Jhsc0Z-5" edge="1">
                    <mxGeometry width="50" height="50" relative="1" as="geometry">
                        <mxPoint x="430" y="160" as="sourcePoint"/>
                        <mxPoint x="700" y="200" as="targetPoint"/>
                        <Array as="points"/>
                    </mxGeometry>
                </mxCell>
                <mxCell id="iXq1CX7b5IGds2Jhsc0Z-20" value="" style="endArrow=none;html=1;rounded=0;entryX=0.5;entryY=0;entryDx=0;entryDy=0;" parent="1" target="iXq1CX7b5IGds2Jhsc0Z-2" edge="1">
                    <mxGeometry width="50" height="50" relative="1" as="geometry">
                        <mxPoint x="420" y="160" as="sourcePoint"/>
                        <mxPoint x="860" y="230" as="targetPoint"/>
                        <Array as="points"/>
                    </mxGeometry>
                </mxCell>
                <mxCell id="iXq1CX7b5IGds2Jhsc0Z-21" value="&lt;u&gt;Ekod&lt;/u&gt;" style="rhombus;whiteSpace=wrap;html=1;" parent="1" vertex="1">
                    <mxGeometry x="-960" y="200" width="80" height="80" as="geometry"/>
                </mxCell>
                <mxCell id="iXq1CX7b5IGds2Jhsc0Z-23" value="Csillag" style="ellipse;whiteSpace=wrap;html=1;" parent="1" vertex="1">
                    <mxGeometry x="-680" y="320" width="120" height="80" as="geometry"/>
                </mxCell>
                <mxCell id="iXq1CX7b5IGds2Jhsc0Z-24" value="Cim" style="ellipse;whiteSpace=wrap;html=1;" parent="1" vertex="1">
                    <mxGeometry x="-840" y="320" width="120" height="80" as="geometry"/>
                </mxCell>
                <mxCell id="iXq1CX7b5IGds2Jhsc0Z-25" value="Nev" style="ellipse;whiteSpace=wrap;html=1;" parent="1" vertex="1">
                    <mxGeometry x="-1000" y="320" width="120" height="80" as="geometry"/>
                </mxCell>
                <mxCell id="iXq1CX7b5IGds2Jhsc0Z-29" value="" style="endArrow=none;html=1;rounded=0;entryX=0.5;entryY=1;entryDx=0;entryDy=0;exitX=0.5;exitY=0;exitDx=0;exitDy=0;" parent="1" source="iXq1CX7b5IGds2Jhsc0Z-24" target="iXq1CX7b5IGds2Jhsc0Z-7" edge="1">
                    <mxGeometry width="50" height="50" relative="1" as="geometry">
                        <mxPoint x="-680" y="460" as="sourcePoint"/>
                        <mxPoint x="-630" y="410" as="targetPoint"/>
                    </mxGeometry>
                </mxCell>
                <mxCell id="iXq1CX7b5IGds2Jhsc0Z-30" value="" style="endArrow=none;html=1;rounded=0;entryX=0.5;entryY=1;entryDx=0;entryDy=0;exitX=0.5;exitY=0;exitDx=0;exitDy=0;" parent="1" source="iXq1CX7b5IGds2Jhsc0Z-25" target="iXq1CX7b5IGds2Jhsc0Z-7" edge="1">
                    <mxGeometry width="50" height="50" relative="1" as="geometry">
                        <mxPoint x="-790" y="360" as="sourcePoint"/>
                        <mxPoint x="-790" y="320" as="targetPoint"/>
                    </mxGeometry>
                </mxCell>
                <mxCell id="iXq1CX7b5IGds2Jhsc0Z-31" value="" style="endArrow=none;html=1;rounded=0;entryX=0.5;entryY=1;entryDx=0;entryDy=0;exitX=0.5;exitY=0;exitDx=0;exitDy=0;" parent="1" source="iXq1CX7b5IGds2Jhsc0Z-23" target="iXq1CX7b5IGds2Jhsc0Z-7" edge="1">
                    <mxGeometry width="50" height="50" relative="1" as="geometry">
                        <mxPoint x="-830" y="370" as="sourcePoint"/>
                        <mxPoint x="-670" y="330" as="targetPoint"/>
                    </mxGeometry>
                </mxCell>
                <mxCell id="iXq1CX7b5IGds2Jhsc0Z-33" value="" style="rounded=0;whiteSpace=wrap;html=1;direction=south;" parent="1" vertex="1">
                    <mxGeometry x="-960" y="440" width="40" height="80" as="geometry"/>
                </mxCell>
                <mxCell id="iXq1CX7b5IGds2Jhsc0Z-35" value="" style="rounded=0;whiteSpace=wrap;html=1;direction=south;" parent="1" vertex="1">
                    <mxGeometry x="-640" y="440" width="40" height="80" as="geometry"/>
                </mxCell>
                <mxCell id="iXq1CX7b5IGds2Jhsc0Z-36" value="" style="endArrow=none;html=1;rounded=0;entryX=0.5;entryY=1;entryDx=0;entryDy=0;exitX=0;exitY=0.5;exitDx=0;exitDy=0;" parent="1" source="iXq1CX7b5IGds2Jhsc0Z-35" target="iXq1CX7b5IGds2Jhsc0Z-23" edge="1">
                    <mxGeometry width="50" height="50" relative="1" as="geometry">
                        <mxPoint x="-570" y="460" as="sourcePoint"/>
                        <mxPoint x="-520" y="410" as="targetPoint"/>
                    </mxGeometry>
                </mxCell>
                <mxCell id="iXq1CX7b5IGds2Jhsc0Z-38" value="" style="endArrow=none;html=1;rounded=0;entryX=0.5;entryY=1;entryDx=0;entryDy=0;exitX=0;exitY=0.5;exitDx=0;exitDy=0;" parent="1" edge="1">
                    <mxGeometry width="50" height="50" relative="1" as="geometry">
                        <mxPoint x="-940.62" y="440" as="sourcePoint"/>
                        <mxPoint x="-940.62" y="400" as="targetPoint"/>
                    </mxGeometry>
                </mxCell>
                <mxCell id="iXq1CX7b5IGds2Jhsc0Z-39" value="&lt;span style=&quot;color: rgba(0, 0, 0, 0); font-family: monospace; font-size: 0px; text-align: start; text-wrap-mode: nowrap;&quot;&gt;%3CmxGraphModel%3E%3Croot%3E%3CmxCell%20id%3D%220%22%2F%3E%3CmxCell%20id%3D%221%22%20parent%3D%220%22%2F%3E%3CmxCell%20id%3D%222%22%20value%3D%22Csillag%22%20style%3D%22ellipse%3BwhiteSpace%3Dwrap%3Bhtml%3D1%3B%22%20vertex%3D%221%22%20parent%3D%221%22%3E%3CmxGeometry%20x%3D%22120%22%20y%3D%22320%22%20width%3D%22120%22%20height%3D%2280%22%20as%3D%22geometry%22%2F%3E%3C%2FmxCell%3E%3CmxCell%20id%3D%223%22%20value%3D%22Cim%22%20style%3D%22ellipse%3BwhiteSpace%3Dwrap%3Bhtml%3D1%3B%22%20vertex%3D%221%22%20parent%3D%221%22%3E%3CmxGeometry%20x%3D%22-40%22%20y%3D%22320%22%20width%3D%22120%22%20height%3D%2280%22%20as%3D%22geometry%22%2F%3E%3C%2FmxCell%3E%3CmxCell%20id%3D%224%22%20value%3D%22Nev%22%20style%3D%22ellipse%3BwhiteSpace%3Dwrap%3Bhtml%3D1%3B%22%20vertex%3D%221%22%20parent%3D%221%22%3E%3CmxGeometry%20x%3D%22-200%22%20y%3D%22320%22%20width%3D%22120%22%20height%3D%2280%22%20as%3D%22geometry%22%2F%3E%3C%2FmxCell%3E%3CmxCell%20id%3D%225%22%20value%3D%22%22%20style%3D%22rounded%3D0%3BwhiteSpace%3Dwrap%3Bhtml%3D1%3Bdirection%3Dsouth%3B%22%20vertex%3D%221%22%20parent%3D%221%22%3E%3CmxGeometry%20x%3D%22-170%22%20y%3D%22440%22%20width%3D%2260%22%20height%3D%22120%22%20as%3D%22geometry%22%2F%3E%3C%2FmxCell%3E%3CmxCell%20id%3D%226%22%20value%3D%22%22%20style%3D%22rounded%3D0%3BwhiteSpace%3Dwrap%3Bhtml%3D1%3Bdirection%3Dsouth%3B%22%20vertex%3D%221%22%20parent%3D%221%22%3E%3CmxGeometry%20x%3D%22-10%22%20y%3D%22440%22%20width%3D%2260%22%20height%3D%22120%22%20as%3D%22geometry%22%2F%3E%3C%2FmxCell%3E%3CmxCell%20id%3D%227%22%20value%3D%22%22%20style%3D%22rounded%3D0%3BwhiteSpace%3Dwrap%3Bhtml%3D1%3Bdirection%3Dsouth%3B%22%20vertex%3D%221%22%20parent%3D%221%22%3E%3CmxGeometry%20x%3D%22150%22%20y%3D%22440%22%20width%3D%2260%22%20height%3D%22120%22%20as%3D%22geometry%22%2F%3E%3C%2FmxCell%3E%3CmxCell%20id%3D%228%22%20value%3D%22%22%20style%3D%22endArrow%3Dnone%3Bhtml%3D1%3Brounded%3D0%3BentryX%3D0.5%3BentryY%3D1%3BentryDx%3D0%3BentryDy%3D0%3BexitX%3D0%3BexitY%3D0.5%3BexitDx%3D0%3BexitDy%3D0%3B%22%20edge%3D%221%22%20source%3D%227%22%20target%3D%222%22%20parent%3D%221%22%3E%3CmxGeometry%20width%3D%2250%22%20height%3D%2250%22%20relative%3D%221%22%20as%3D%22geometry%22%3E%3CmxPoint%20x%3D%22230%22%20y%3D%22460%22%20as%3D%22sourcePoint%22%2F%3E%3CmxPoint%20x%3D%22280%22%20y%3D%22410%22%20as%3D%22targetPoint%22%2F%3E%3C%2FmxGeometry%3E%3C%2FmxCell%3E%3CmxCell%20id%3D%229%22%20value%3D%22%22%20style%3D%22endArrow%3Dnone%3Bhtml%3D1%3Brounded%3D0%3BentryX%3D0.5%3BentryY%3D1%3BentryDx%3D0%3BentryDy%3D0%3BexitX%3D0%3BexitY%3D0.5%3BexitDx%3D0%3BexitDy%3D0%3B%22%20edge%3D%221%22%20parent%3D%221%22%3E%3CmxGeometry%20width%3D%2250%22%20height%3D%2250%22%20relative%3D%221%22%20as%3D%22geometry%22%3E%3CmxPoint%20x%3D%2219.379999999999995%22%20y%3D%22440%22%20as%3D%22sourcePoint%22%2F%3E%3CmxPoint%20x%3D%2219.379999999999995%22%20y%3D%22400%22%20as%3D%22targetPoint%22%2F%3E%3C%2FmxGeometry%3E%3C%2FmxCell%3E%3CmxCell%20id%3D%2210%22%20value%3D%22%22%20style%3D%22endArrow%3Dnone%3Bhtml%3D1%3Brounded%3D0%3BentryX%3D0.5%3BentryY%3D1%3BentryDx%3D0%3BentryDy%3D0%3BexitX%3D0%3BexitY%3D0.5%3BexitDx%3D0%3BexitDy%3D0%3B%22%20edge%3D%221%22%20parent%3D%221%22%3E%3CmxGeometry%20width%3D%2250%22%20height%3D%2250%22%20relative%3D%221%22%20as%3D%22geometry%22%3E%3CmxPoint%20x%3D%22-140.62%22%20y%3D%22440%22%20as%3D%22sourcePoint%22%2F%3E%3CmxPoint%20x%3D%22-140.62%22%20y%3D%22400%22%20as%3D%22targetPoint%22%2F%3E%3C%2FmxGeometry%3E%3C%2FmxCell%3E%3C%2Froot%3E%3C%2FmxGraphModel%3E&lt;/span&gt;" style="ellipse;whiteSpace=wrap;html=1;" parent="1" vertex="1">
                    <mxGeometry x="-200" y="320" width="120" height="80" as="geometry"/>
                </mxCell>
                <mxCell id="iXq1CX7b5IGds2Jhsc0Z-40" value="Eletkor" style="ellipse;whiteSpace=wrap;html=1;" parent="1" vertex="1">
                    <mxGeometry x="-360" y="320" width="120" height="80" as="geometry"/>
                </mxCell>
                <mxCell id="iXq1CX7b5IGds2Jhsc0Z-41" value="Nev" style="ellipse;whiteSpace=wrap;html=1;" parent="1" vertex="1">
                    <mxGeometry x="-520" y="320" width="120" height="80" as="geometry"/>
                </mxCell>
                <mxCell id="iXq1CX7b5IGds2Jhsc0Z-42" value="" style="rounded=0;whiteSpace=wrap;html=1;direction=south;" parent="1" vertex="1">
                    <mxGeometry x="-480" y="440" width="40" height="80" as="geometry"/>
                </mxCell>
                <mxCell id="iXq1CX7b5IGds2Jhsc0Z-43" value="" style="rounded=0;whiteSpace=wrap;html=1;direction=south;" parent="1" vertex="1">
                    <mxGeometry x="-320" y="440" width="40" height="80" as="geometry"/>
                </mxCell>
                <mxCell id="iXq1CX7b5IGds2Jhsc0Z-44" value="" style="rounded=0;whiteSpace=wrap;html=1;direction=south;" parent="1" vertex="1">
                    <mxGeometry x="-160" y="440" width="40" height="80" as="geometry"/>
                </mxCell>
                <mxCell id="iXq1CX7b5IGds2Jhsc0Z-45" value="" style="endArrow=none;html=1;rounded=0;entryX=0.5;entryY=1;entryDx=0;entryDy=0;exitX=0;exitY=0.5;exitDx=0;exitDy=0;" parent="1" source="iXq1CX7b5IGds2Jhsc0Z-44" target="iXq1CX7b5IGds2Jhsc0Z-39" edge="1">
                    <mxGeometry width="50" height="50" relative="1" as="geometry">
                        <mxPoint x="-90" y="460" as="sourcePoint"/>
                        <mxPoint x="-40" y="410" as="targetPoint"/>
                    </mxGeometry>
                </mxCell>
                <mxCell id="iXq1CX7b5IGds2Jhsc0Z-46" value="" style="endArrow=none;html=1;rounded=0;entryX=0.5;entryY=1;entryDx=0;entryDy=0;exitX=0;exitY=0.5;exitDx=0;exitDy=0;" parent="1" edge="1">
                    <mxGeometry width="50" height="50" relative="1" as="geometry">
                        <mxPoint x="-300.62" y="440" as="sourcePoint"/>
                        <mxPoint x="-300.62" y="400" as="targetPoint"/>
                    </mxGeometry>
                </mxCell>
                <mxCell id="iXq1CX7b5IGds2Jhsc0Z-47" value="" style="endArrow=none;html=1;rounded=0;entryX=0.5;entryY=1;entryDx=0;entryDy=0;exitX=0;exitY=0.5;exitDx=0;exitDy=0;" parent="1" edge="1">
                    <mxGeometry width="50" height="50" relative="1" as="geometry">
                        <mxPoint x="-460.62" y="440" as="sourcePoint"/>
                        <mxPoint x="-460.62" y="400" as="targetPoint"/>
                    </mxGeometry>
                </mxCell>
                <mxCell id="iXq1CX7b5IGds2Jhsc0Z-48" value="Reszleg" style="ellipse;whiteSpace=wrap;html=1;" parent="1" vertex="1">
                    <mxGeometry x="280" y="320" width="120" height="80" as="geometry"/>
                </mxCell>
                <mxCell id="iXq1CX7b5IGds2Jhsc0Z-49" value="Cim" style="ellipse;whiteSpace=wrap;html=1;" parent="1" vertex="1">
                    <mxGeometry x="120" y="320" width="120" height="80" as="geometry"/>
                </mxCell>
                <mxCell id="iXq1CX7b5IGds2Jhsc0Z-50" value="Nev" style="ellipse;whiteSpace=wrap;html=1;" parent="1" vertex="1">
                    <mxGeometry x="-40" y="320" width="120" height="80" as="geometry"/>
                </mxCell>
                <mxCell id="iXq1CX7b5IGds2Jhsc0Z-51" value="" style="rounded=0;whiteSpace=wrap;html=1;direction=south;" parent="1" vertex="1">
                    <mxGeometry y="440" width="40" height="80" as="geometry"/>
                </mxCell>
                <mxCell id="iXq1CX7b5IGds2Jhsc0Z-52" value="" style="rounded=0;whiteSpace=wrap;html=1;direction=south;" parent="1" vertex="1">
                    <mxGeometry x="160" y="440" width="40" height="80" as="geometry"/>
                </mxCell>
                <mxCell id="iXq1CX7b5IGds2Jhsc0Z-53" value="" style="rounded=0;whiteSpace=wrap;html=1;direction=south;" parent="1" vertex="1">
                    <mxGeometry x="320" y="440" width="40" height="80" as="geometry"/>
                </mxCell>
                <mxCell id="iXq1CX7b5IGds2Jhsc0Z-54" value="" style="endArrow=none;html=1;rounded=0;entryX=0.5;entryY=1;entryDx=0;entryDy=0;exitX=0;exitY=0.5;exitDx=0;exitDy=0;" parent="1" source="iXq1CX7b5IGds2Jhsc0Z-53" target="iXq1CX7b5IGds2Jhsc0Z-48" edge="1">
                    <mxGeometry width="50" height="50" relative="1" as="geometry">
                        <mxPoint x="390" y="460" as="sourcePoint"/>
                        <mxPoint x="440" y="410" as="targetPoint"/>
                    </mxGeometry>
                </mxCell>
                <mxCell id="iXq1CX7b5IGds2Jhsc0Z-55" value="" style="endArrow=none;html=1;rounded=0;entryX=0.5;entryY=1;entryDx=0;entryDy=0;exitX=0;exitY=0.5;exitDx=0;exitDy=0;" parent="1" edge="1">
                    <mxGeometry width="50" height="50" relative="1" as="geometry">
                        <mxPoint x="179.38" y="440" as="sourcePoint"/>
                        <mxPoint x="179.38" y="400" as="targetPoint"/>
                    </mxGeometry>
                </mxCell>
                <mxCell id="iXq1CX7b5IGds2Jhsc0Z-56" value="" style="endArrow=none;html=1;rounded=0;entryX=0.5;entryY=1;entryDx=0;entryDy=0;exitX=0;exitY=0.5;exitDx=0;exitDy=0;" parent="1" edge="1">
                    <mxGeometry width="50" height="50" relative="1" as="geometry">
                        <mxPoint x="19.379999999999995" y="440" as="sourcePoint"/>
                        <mxPoint x="19.379999999999995" y="400" as="targetPoint"/>
                    </mxGeometry>
                </mxCell>
                <mxCell id="iXq1CX7b5IGds2Jhsc0Z-57" value="&lt;u&gt;Fkod&lt;/u&gt;" style="rhombus;whiteSpace=wrap;html=1;" parent="1" vertex="1">
                    <mxGeometry x="-475" y="200" width="80" height="80" as="geometry"/>
                </mxCell>
                <mxCell id="iXq1CX7b5IGds2Jhsc0Z-58" value="" style="endArrow=none;html=1;rounded=0;entryX=0;entryY=0.5;entryDx=0;entryDy=0;exitX=1;exitY=0.5;exitDx=0;exitDy=0;" parent="1" source="iXq1CX7b5IGds2Jhsc0Z-57" target="iXq1CX7b5IGds2Jhsc0Z-4" edge="1">
                    <mxGeometry width="50" height="50" relative="1" as="geometry">
                        <mxPoint x="-265" y="390" as="sourcePoint"/>
                        <mxPoint x="-215" y="340" as="targetPoint"/>
                    </mxGeometry>
                </mxCell>
                <mxCell id="iXq1CX7b5IGds2Jhsc0Z-60" value="Vegzettseg" style="ellipse;whiteSpace=wrap;html=1;" parent="1" vertex="1">
                    <mxGeometry x="-195" y="325" width="110" height="70" as="geometry"/>
                </mxCell>
                <mxCell id="iXq1CX7b5IGds2Jhsc0Z-61" value="" style="endArrow=none;html=1;rounded=0;entryX=0.5;entryY=1;entryDx=0;entryDy=0;exitX=0.5;exitY=0;exitDx=0;exitDy=0;" parent="1" source="iXq1CX7b5IGds2Jhsc0Z-40" target="iXq1CX7b5IGds2Jhsc0Z-4" edge="1">
                    <mxGeometry width="50" height="50" relative="1" as="geometry">
                        <mxPoint x="-270" y="390" as="sourcePoint"/>
                        <mxPoint x="-305" y="280" as="targetPoint"/>
                    </mxGeometry>
                </mxCell>
                <mxCell id="iXq1CX7b5IGds2Jhsc0Z-62" value="" style="endArrow=none;html=1;rounded=0;exitX=0.5;exitY=0;exitDx=0;exitDy=0;" parent="1" edge="1">
                    <mxGeometry width="50" height="50" relative="1" as="geometry">
                        <mxPoint x="-460" y="320" as="sourcePoint"/>
                        <mxPoint x="-305" y="280" as="targetPoint"/>
                    </mxGeometry>
                </mxCell>
                <mxCell id="iXq1CX7b5IGds2Jhsc0Z-63" value="" style="endArrow=none;html=1;rounded=0;entryX=0.5;entryY=0;entryDx=0;entryDy=0;" parent="1" target="iXq1CX7b5IGds2Jhsc0Z-39" edge="1">
                    <mxGeometry width="50" height="50" relative="1" as="geometry">
                        <mxPoint x="-295" y="280" as="sourcePoint"/>
                        <mxPoint x="-160" y="280" as="targetPoint"/>
                    </mxGeometry>
                </mxCell>
                <mxCell id="iXq1CX7b5IGds2Jhsc0Z-64" value="Hazszam" style="ellipse;whiteSpace=wrap;html=1;" parent="1" vertex="1">
                    <mxGeometry x="-680" y="560" width="120" height="80" as="geometry"/>
                </mxCell>
                <mxCell id="iXq1CX7b5IGds2Jhsc0Z-65" value="Utca" style="ellipse;whiteSpace=wrap;html=1;" parent="1" vertex="1">
                    <mxGeometry x="-840" y="560" width="120" height="80" as="geometry"/>
                </mxCell>
                <mxCell id="iXq1CX7b5IGds2Jhsc0Z-66" value="Varos" style="ellipse;whiteSpace=wrap;html=1;" parent="1" vertex="1">
                    <mxGeometry x="-1000" y="560" width="120" height="80" as="geometry"/>
                </mxCell>
                <mxCell id="iXq1CX7b5IGds2Jhsc0Z-67" value="" style="endArrow=none;html=1;rounded=0;entryX=0.5;entryY=1;entryDx=0;entryDy=0;exitX=0.5;exitY=0;exitDx=0;exitDy=0;" parent="1" target="iXq1CX7b5IGds2Jhsc0Z-24" edge="1" source="iXq1CX7b5IGds2Jhsc0Z-65">
                    <mxGeometry width="50" height="50" relative="1" as="geometry">
                        <mxPoint x="-780" y="600" as="sourcePoint"/>
                        <mxPoint x="-730" y="550" as="targetPoint"/>
                    </mxGeometry>
                </mxCell>
                <mxCell id="iXq1CX7b5IGds2Jhsc0Z-68" value="" style="endArrow=none;html=1;rounded=0;entryX=0.5;entryY=1;entryDx=0;entryDy=0;exitX=0.5;exitY=0;exitDx=0;exitDy=0;" parent="1" source="iXq1CX7b5IGds2Jhsc0Z-66" target="iXq1CX7b5IGds2Jhsc0Z-24" edge="1">
                    <mxGeometry width="50" height="50" relative="1" as="geometry">
                        <mxPoint x="-790" y="700" as="sourcePoint"/>
                        <mxPoint x="-780" y="410" as="targetPoint"/>
                    </mxGeometry>
                </mxCell>
                <mxCell id="iXq1CX7b5IGds2Jhsc0Z-70" value="" style="endArrow=none;html=1;rounded=0;exitX=0.5;exitY=0;exitDx=0;exitDy=0;" parent="1" source="iXq1CX7b5IGds2Jhsc0Z-64" edge="1">
                    <mxGeometry width="50" height="50" relative="1" as="geometry">
                        <mxPoint x="-770" y="710" as="sourcePoint"/>
                        <mxPoint x="-780" y="400" as="targetPoint"/>
                    </mxGeometry>
                </mxCell>
                <mxCell id="wsrLWdcah2Zn08OujmZn-1" value="" style="endArrow=none;html=1;rounded=0;entryX=0.5;entryY=1;entryDx=0;entryDy=0;exitX=0.5;exitY=0;exitDx=0;exitDy=0;" parent="1" source="iXq1CX7b5IGds2Jhsc0Z-50" target="iXq1CX7b5IGds2Jhsc0Z-3" edge="1">
                    <mxGeometry width="50" height="50" relative="1" as="geometry">
                        <mxPoint x="80" y="360" as="sourcePoint"/>
                        <mxPoint x="130" y="310" as="targetPoint"/>
                    </mxGeometry>
                </mxCell>
                <mxCell id="wsrLWdcah2Zn08OujmZn-2" value="" style="endArrow=none;html=1;rounded=0;exitX=0.5;exitY=0;exitDx=0;exitDy=0;entryX=0.5;entryY=1;entryDx=0;entryDy=0;" parent="1" source="iXq1CX7b5IGds2Jhsc0Z-49" target="iXq1CX7b5IGds2Jhsc0Z-3" edge="1">
                    <mxGeometry width="50" height="50" relative="1" as="geometry">
                        <mxPoint x="180" y="335" as="sourcePoint"/>
                        <mxPoint x="180" y="290" as="targetPoint"/>
                    </mxGeometry>
                </mxCell>
                <mxCell id="wsrLWdcah2Zn08OujmZn-3" value="" style="endArrow=none;html=1;rounded=0;exitX=0.5;exitY=0;exitDx=0;exitDy=0;entryX=0.5;entryY=1;entryDx=0;entryDy=0;" parent="1" source="iXq1CX7b5IGds2Jhsc0Z-48" target="iXq1CX7b5IGds2Jhsc0Z-3" edge="1">
                    <mxGeometry width="50" height="50" relative="1" as="geometry">
                        <mxPoint x="260" y="325" as="sourcePoint"/>
                        <mxPoint x="260" y="290" as="targetPoint"/>
                    </mxGeometry>
                </mxCell>
                <mxCell id="wsrLWdcah2Zn08OujmZn-4" value="&lt;u&gt;Szkod&lt;/u&gt;" style="rhombus;whiteSpace=wrap;html=1;" parent="1" vertex="1">
                    <mxGeometry y="200" width="80" height="80" as="geometry"/>
                </mxCell>
                <mxCell id="wsrLWdcah2Zn08OujmZn-5" value="" style="endArrow=none;html=1;rounded=0;entryX=0;entryY=0.438;entryDx=0;entryDy=0;entryPerimeter=0;exitX=1;exitY=0.5;exitDx=0;exitDy=0;" parent="1" source="wsrLWdcah2Zn08OujmZn-4" target="iXq1CX7b5IGds2Jhsc0Z-3" edge="1">
                    <mxGeometry width="50" height="50" relative="1" as="geometry">
                        <mxPoint x="10" y="260" as="sourcePoint"/>
                        <mxPoint x="60" y="210" as="targetPoint"/>
                    </mxGeometry>
                </mxCell>
                <mxCell id="wsrLWdcah2Zn08OujmZn-6" value="&lt;span style=&quot;color: rgba(0, 0, 0, 0); font-family: monospace; font-size: 0px; text-align: start; text-wrap-mode: nowrap;&quot;&gt;%3CmxGraphModel%3E%3Croot%3E%3CmxCell%20id%3D%220%22%2F%3E%3CmxCell%20id%3D%221%22%20parent%3D%220%22%2F%3E%3CmxCell%20id%3D%222%22%20value%3D%22Csillag%22%20style%3D%22ellipse%3BwhiteSpace%3Dwrap%3Bhtml%3D1%3B%22%20vertex%3D%221%22%20parent%3D%221%22%3E%3CmxGeometry%20x%3D%22280%22%20y%3D%22320%22%20width%3D%22120%22%20height%3D%2280%22%20as%3D%22geometry%22%2F%3E%3C%2FmxCell%3E%3CmxCell%20id%3D%223%22%20value%3D%22Cim%22%20style%3D%22ellipse%3BwhiteSpace%3Dwrap%3Bhtml%3D1%3B%22%20vertex%3D%221%22%20parent%3D%221%22%3E%3CmxGeometry%20x%3D%22120%22%20y%3D%22320%22%20width%3D%22120%22%20height%3D%2280%22%20as%3D%22geometry%22%2F%3E%3C%2FmxCell%3E%3CmxCell%20id%3D%224%22%20value%3D%22Nev%22%20style%3D%22ellipse%3BwhiteSpace%3Dwrap%3Bhtml%3D1%3B%22%20vertex%3D%221%22%20parent%3D%221%22%3E%3CmxGeometry%20x%3D%22-40%22%20y%3D%22320%22%20width%3D%22120%22%20height%3D%2280%22%20as%3D%22geometry%22%2F%3E%3C%2FmxCell%3E%3CmxCell%20id%3D%225%22%20value%3D%22%22%20style%3D%22rounded%3D0%3BwhiteSpace%3Dwrap%3Bhtml%3D1%3Bdirection%3Dsouth%3B%22%20vertex%3D%221%22%20parent%3D%221%22%3E%3CmxGeometry%20y%3D%22440%22%20width%3D%2240%22%20height%3D%2280%22%20as%3D%22geometry%22%2F%3E%3C%2FmxCell%3E%3CmxCell%20id%3D%226%22%20value%3D%22%22%20style%3D%22rounded%3D0%3BwhiteSpace%3Dwrap%3Bhtml%3D1%3Bdirection%3Dsouth%3B%22%20vertex%3D%221%22%20parent%3D%221%22%3E%3CmxGeometry%20x%3D%22160%22%20y%3D%22440%22%20width%3D%2240%22%20height%3D%2280%22%20as%3D%22geometry%22%2F%3E%3C%2FmxCell%3E%3CmxCell%20id%3D%227%22%20value%3D%22%22%20style%3D%22rounded%3D0%3BwhiteSpace%3Dwrap%3Bhtml%3D1%3Bdirection%3Dsouth%3B%22%20vertex%3D%221%22%20parent%3D%221%22%3E%3CmxGeometry%20x%3D%22320%22%20y%3D%22440%22%20width%3D%2240%22%20height%3D%2280%22%20as%3D%22geometry%22%2F%3E%3C%2FmxCell%3E%3CmxCell%20id%3D%228%22%20value%3D%22%22%20style%3D%22endArrow%3Dnone%3Bhtml%3D1%3Brounded%3D0%3BentryX%3D0.5%3BentryY%3D1%3BentryDx%3D0%3BentryDy%3D0%3BexitX%3D0%3BexitY%3D0.5%3BexitDx%3D0%3BexitDy%3D0%3B%22%20edge%3D%221%22%20source%3D%227%22%20target%3D%222%22%20parent%3D%221%22%3E%3CmxGeometry%20width%3D%2250%22%20height%3D%2250%22%20relative%3D%221%22%20as%3D%22geometry%22%3E%3CmxPoint%20x%3D%22390%22%20y%3D%22460%22%20as%3D%22sourcePoint%22%2F%3E%3CmxPoint%20x%3D%22440%22%20y%3D%22410%22%20as%3D%22targetPoint%22%2F%3E%3C%2FmxGeometry%3E%3C%2FmxCell%3E%3CmxCell%20id%3D%229%22%20value%3D%22%22%20style%3D%22endArrow%3Dnone%3Bhtml%3D1%3Brounded%3D0%3BentryX%3D0.5%3BentryY%3D1%3BentryDx%3D0%3BentryDy%3D0%3BexitX%3D0%3BexitY%3D0.5%3BexitDx%3D0%3BexitDy%3D0%3B%22%20edge%3D%221%22%20parent%3D%221%22%3E%3CmxGeometry%20width%3D%2250%22%20height%3D%2250%22%20relative%3D%221%22%20as%3D%22geometry%22%3E%3CmxPoint%20x%3D%22179.38%22%20y%3D%22440%22%20as%3D%22sourcePoint%22%2F%3E%3CmxPoint%20x%3D%22179.38%22%20y%3D%22400%22%20as%3D%22targetPoint%22%2F%3E%3C%2FmxGeometry%3E%3C%2FmxCell%3E%3CmxCell%20id%3D%2210%22%20value%3D%22%22%20style%3D%22endArrow%3Dnone%3Bhtml%3D1%3Brounded%3D0%3BentryX%3D0.5%3BentryY%3D1%3BentryDx%3D0%3BentryDy%3D0%3BexitX%3D0%3BexitY%3D0.5%3BexitDx%3D0%3BexitDy%3D0%3B%22%20edge%3D%221%22%20parent%3D%221%22%3E%3CmxGeometry%20width%3D%2250%22%20height%3D%2250%22%20relative%3D%221%22%20as%3D%22geometry%22%3E%3CmxPoint%20x%3D%2219.379999999999995%22%20y%3D%22440%22%20as%3D%22sourcePoint%22%2F%3E%3CmxPoint%20x%3D%2219.379999999999995%22%20y%3D%22400%22%20as%3D%22targetPoint%22%2F%3E%3C%2FmxGeometry%3E%3C%2FmxCell%3E%3CmxCell%20id%3D%2211%22%20value%3D%22%22%20style%3D%22endArrow%3Dnone%3Bhtml%3D1%3Brounded%3D0%3BentryX%3D0.5%3BentryY%3D1%3BentryDx%3D0%3BentryDy%3D0%3BexitX%3D0.5%3BexitY%3D0%3BexitDx%3D0%3BexitDy%3D0%3B%22%20edge%3D%221%22%20source%3D%224%22%20parent%3D%221%22%3E%3CmxGeometry%20width%3D%2250%22%20height%3D%2250%22%20relative%3D%221%22%20as%3D%22geometry%22%3E%3CmxPoint%20x%3D%2280%22%20y%3D%22360%22%20as%3D%22sourcePoint%22%2F%3E%3CmxPoint%20x%3D%22180%22%20y%3D%22285%22%20as%3D%22targetPoint%22%2F%3E%3C%2FmxGeometry%3E%3C%2FmxCell%3E%3CmxCell%20id%3D%2212%22%20value%3D%22%22%20style%3D%22endArrow%3Dnone%3Bhtml%3D1%3Brounded%3D0%3BexitX%3D0.5%3BexitY%3D0%3BexitDx%3D0%3BexitDy%3D0%3BentryX%3D0.5%3BentryY%3D1%3BentryDx%3D0%3BentryDy%3D0%3B%22%20edge%3D%221%22%20source%3D%223%22%20parent%3D%221%22%3E%3CmxGeometry%20width%3D%2250%22%20height%3D%2250%22%20relative%3D%221%22%20as%3D%22geometry%22%3E%3CmxPoint%20x%3D%22180%22%20y%3D%22335%22%20as%3D%22sourcePoint%22%2F%3E%3CmxPoint%20x%3D%22180%22%20y%3D%22285%22%20as%3D%22targetPoint%22%2F%3E%3C%2FmxGeometry%3E%3C%2FmxCell%3E%3CmxCell%20id%3D%2213%22%20value%3D%22%22%20style%3D%22endArrow%3Dnone%3Bhtml%3D1%3Brounded%3D0%3BexitX%3D0.5%3BexitY%3D0%3BexitDx%3D0%3BexitDy%3D0%3BentryX%3D0.5%3BentryY%3D1%3BentryDx%3D0%3BentryDy%3D0%3B%22%20edge%3D%221%22%20source%3D%222%22%20parent%3D%221%22%3E%3CmxGeometry%20width%3D%2250%22%20height%3D%2250%22%20relative%3D%221%22%20as%3D%22geometry%22%3E%3CmxPoint%20x%3D%22260%22%20y%3D%22325%22%20as%3D%22sourcePoint%22%2F%3E%3CmxPoint%20x%3D%22180%22%20y%3D%22285%22%20as%3D%22targetPoint%22%2F%3E%3C%2FmxGeometry%3E%3C%2FmxCell%3E%3C%2Froot%3E%3C%2FmxGraphModel%3E&lt;/span&gt;" style="ellipse;whiteSpace=wrap;html=1;" parent="1" vertex="1">
                    <mxGeometry x="760" y="320" width="120" height="80" as="geometry"/>
                </mxCell>
                <mxCell id="wsrLWdcah2Zn08OujmZn-7" value="Gyakorlat" style="ellipse;whiteSpace=wrap;html=1;" parent="1" vertex="1">
                    <mxGeometry x="600" y="320" width="120" height="80" as="geometry"/>
                </mxCell>
                <mxCell id="wsrLWdcah2Zn08OujmZn-8" value="Nev" style="ellipse;whiteSpace=wrap;html=1;" parent="1" vertex="1">
                    <mxGeometry x="440" y="320" width="120" height="80" as="geometry"/>
                </mxCell>
                <mxCell id="wsrLWdcah2Zn08OujmZn-9" value="" style="rounded=0;whiteSpace=wrap;html=1;direction=south;" parent="1" vertex="1">
                    <mxGeometry x="480" y="440" width="40" height="80" as="geometry"/>
                </mxCell>
                <mxCell id="wsrLWdcah2Zn08OujmZn-11" value="" style="rounded=0;whiteSpace=wrap;html=1;direction=south;" parent="1" vertex="1">
                    <mxGeometry x="800" y="440" width="40" height="80" as="geometry"/>
                </mxCell>
                <mxCell id="wsrLWdcah2Zn08OujmZn-12" value="" style="endArrow=none;html=1;rounded=0;entryX=0.5;entryY=1;entryDx=0;entryDy=0;exitX=0;exitY=0.5;exitDx=0;exitDy=0;" parent="1" source="wsrLWdcah2Zn08OujmZn-11" target="wsrLWdcah2Zn08OujmZn-6" edge="1">
                    <mxGeometry width="50" height="50" relative="1" as="geometry">
                        <mxPoint x="870" y="460" as="sourcePoint"/>
                        <mxPoint x="920" y="410" as="targetPoint"/>
                    </mxGeometry>
                </mxCell>
                <mxCell id="wsrLWdcah2Zn08OujmZn-14" value="" style="endArrow=none;html=1;rounded=0;entryX=0.5;entryY=1;entryDx=0;entryDy=0;exitX=0;exitY=0.5;exitDx=0;exitDy=0;" parent="1" edge="1">
                    <mxGeometry width="50" height="50" relative="1" as="geometry">
                        <mxPoint x="499.38" y="440" as="sourcePoint"/>
                        <mxPoint x="499.38" y="400" as="targetPoint"/>
                    </mxGeometry>
                </mxCell>
                <mxCell id="wsrLWdcah2Zn08OujmZn-15" value="" style="endArrow=none;html=1;rounded=0;entryX=0.5;entryY=1;entryDx=0;entryDy=0;exitX=0.5;exitY=0;exitDx=0;exitDy=0;" parent="1" source="wsrLWdcah2Zn08OujmZn-8" target="iXq1CX7b5IGds2Jhsc0Z-2" edge="1">
                    <mxGeometry width="50" height="50" relative="1" as="geometry">
                        <mxPoint x="560" y="360" as="sourcePoint"/>
                        <mxPoint x="660" y="285" as="targetPoint"/>
                    </mxGeometry>
                </mxCell>
                <mxCell id="wsrLWdcah2Zn08OujmZn-16" value="" style="endArrow=none;html=1;rounded=0;exitX=0.5;exitY=0;exitDx=0;exitDy=0;entryX=0.5;entryY=1;entryDx=0;entryDy=0;" parent="1" source="wsrLWdcah2Zn08OujmZn-7" target="iXq1CX7b5IGds2Jhsc0Z-2" edge="1">
                    <mxGeometry width="50" height="50" relative="1" as="geometry">
                        <mxPoint x="660" y="335" as="sourcePoint"/>
                        <mxPoint x="660" y="285" as="targetPoint"/>
                    </mxGeometry>
                </mxCell>
                <mxCell id="wsrLWdcah2Zn08OujmZn-17" value="" style="endArrow=none;html=1;rounded=0;exitX=0.5;exitY=0;exitDx=0;exitDy=0;" parent="1" source="wsrLWdcah2Zn08OujmZn-6" edge="1">
                    <mxGeometry width="50" height="50" relative="1" as="geometry">
                        <mxPoint x="740" y="325" as="sourcePoint"/>
                        <mxPoint x="660" y="280" as="targetPoint"/>
                    </mxGeometry>
                </mxCell>
                <mxCell id="wsrLWdcah2Zn08OujmZn-19" value="EGY" style="rhombus;whiteSpace=wrap;html=1;" parent="1" vertex="1">
                    <mxGeometry x="760" y="200" width="80" height="80" as="geometry"/>
                </mxCell>
                <mxCell id="wsrLWdcah2Zn08OujmZn-20" value="" style="endArrow=none;html=1;rounded=0;exitX=1;exitY=0.5;exitDx=0;exitDy=0;entryX=0;entryY=0.5;entryDx=0;entryDy=0;" parent="1" source="iXq1CX7b5IGds2Jhsc0Z-2" target="wsrLWdcah2Zn08OujmZn-19" edge="1">
                    <mxGeometry width="50" height="50" relative="1" as="geometry">
                        <mxPoint x="760" y="280" as="sourcePoint"/>
                        <mxPoint x="810" y="230" as="targetPoint"/>
                    </mxGeometry>
                </mxCell>
                <mxCell id="wsrLWdcah2Zn08OujmZn-21" value="Muszak" style="ellipse;whiteSpace=wrap;html=1;" parent="1" vertex="1">
                    <mxGeometry x="765" y="325" width="110" height="70" as="geometry"/>
                </mxCell>
                <mxCell id="wsrLWdcah2Zn08OujmZn-22" value="Kezdete" style="ellipse;whiteSpace=wrap;html=1;" parent="1" vertex="1">
                    <mxGeometry x="520" y="520" width="120" height="80" as="geometry"/>
                </mxCell>
                <mxCell id="wsrLWdcah2Zn08OujmZn-23" value="Idotartama" style="ellipse;whiteSpace=wrap;html=1;" parent="1" vertex="1">
                    <mxGeometry x="680" y="520" width="120" height="80" as="geometry"/>
                </mxCell>
                <mxCell id="wsrLWdcah2Zn08OujmZn-24" value="" style="endArrow=none;html=1;rounded=0;entryX=0.5;entryY=1;entryDx=0;entryDy=0;exitX=0.5;exitY=0;exitDx=0;exitDy=0;" parent="1" source="wsrLWdcah2Zn08OujmZn-22" target="wsrLWdcah2Zn08OujmZn-7" edge="1">
                    <mxGeometry width="50" height="50" relative="1" as="geometry">
                        <mxPoint x="540" y="400" as="sourcePoint"/>
                        <mxPoint x="590" y="350" as="targetPoint"/>
                    </mxGeometry>
                </mxCell>
                <mxCell id="wsrLWdcah2Zn08OujmZn-25" value="" style="endArrow=none;html=1;rounded=0;exitX=0.5;exitY=0;exitDx=0;exitDy=0;" parent="1" source="wsrLWdcah2Zn08OujmZn-23" edge="1">
                    <mxGeometry width="50" height="50" relative="1" as="geometry">
                        <mxPoint x="620" y="540" as="sourcePoint"/>
                        <mxPoint x="660" y="400" as="targetPoint"/>
                    </mxGeometry>
                </mxCell>
                <mxCell id="wsrLWdcah2Zn08OujmZn-26" value="Osszeg" style="ellipse;whiteSpace=wrap;html=1;" parent="1" vertex="1">
                    <mxGeometry x="1440" y="316.25" width="120" height="80" as="geometry"/>
                </mxCell>
                <mxCell id="wsrLWdcah2Zn08OujmZn-27" value="Etel" style="ellipse;whiteSpace=wrap;html=1;" parent="1" vertex="1">
                    <mxGeometry x="1600.5" y="316.25" width="120" height="80" as="geometry"/>
                </mxCell>
                <mxCell id="wsrLWdcah2Zn08OujmZn-28" value="" style="endArrow=none;html=1;rounded=0;entryX=0.5;entryY=1;entryDx=0;entryDy=0;exitX=0.5;exitY=0;exitDx=0;exitDy=0;" parent="1" source="wsrLWdcah2Zn08OujmZn-26" target="iXq1CX7b5IGds2Jhsc0Z-6" edge="1">
                    <mxGeometry width="50" height="50" relative="1" as="geometry">
                        <mxPoint x="1500.5" y="388.75" as="sourcePoint"/>
                        <mxPoint x="1550.5" y="338.75" as="targetPoint"/>
                    </mxGeometry>
                </mxCell>
                <mxCell id="wsrLWdcah2Zn08OujmZn-29" value="" style="endArrow=none;html=1;rounded=0;exitX=0.5;exitY=0;exitDx=0;exitDy=0;" parent="1" source="wsrLWdcah2Zn08OujmZn-27" edge="1">
                    <mxGeometry width="50" height="50" relative="1" as="geometry">
                        <mxPoint x="1500.5" y="388.75" as="sourcePoint"/>
                        <mxPoint x="1580.5" y="278.75" as="targetPoint"/>
                    </mxGeometry>
                </mxCell>
                <mxCell id="wsrLWdcah2Zn08OujmZn-31" value="Eletkor" style="ellipse;whiteSpace=wrap;html=1;" parent="1" vertex="1">
                    <mxGeometry x="1240" y="320" width="120" height="80" as="geometry"/>
                </mxCell>
                <mxCell id="wsrLWdcah2Zn08OujmZn-32" value="Cim" style="ellipse;whiteSpace=wrap;html=1;" parent="1" vertex="1">
                    <mxGeometry x="1080" y="320" width="120" height="80" as="geometry"/>
                </mxCell>
                <mxCell id="wsrLWdcah2Zn08OujmZn-33" value="Nev" style="ellipse;whiteSpace=wrap;html=1;" parent="1" vertex="1">
                    <mxGeometry x="920" y="320" width="120" height="80" as="geometry"/>
                </mxCell>
                <mxCell id="wsrLWdcah2Zn08OujmZn-34" value="" style="endArrow=none;html=1;rounded=0;entryX=0.5;entryY=1;entryDx=0;entryDy=0;exitX=0.5;exitY=0;exitDx=0;exitDy=0;" parent="1" source="wsrLWdcah2Zn08OujmZn-33" target="iXq1CX7b5IGds2Jhsc0Z-5" edge="1">
                    <mxGeometry width="50" height="50" relative="1" as="geometry">
                        <mxPoint x="1120" y="380" as="sourcePoint"/>
                        <mxPoint x="1170" y="330" as="targetPoint"/>
                    </mxGeometry>
                </mxCell>
                <mxCell id="wsrLWdcah2Zn08OujmZn-35" value="" style="endArrow=none;html=1;rounded=0;entryX=0.5;entryY=1;entryDx=0;entryDy=0;exitX=0.5;exitY=0;exitDx=0;exitDy=0;" parent="1" source="wsrLWdcah2Zn08OujmZn-32" target="iXq1CX7b5IGds2Jhsc0Z-5" edge="1">
                    <mxGeometry width="50" height="50" relative="1" as="geometry">
                        <mxPoint x="1120" y="380" as="sourcePoint"/>
                        <mxPoint x="1170" y="330" as="targetPoint"/>
                    </mxGeometry>
                </mxCell>
                <mxCell id="wsrLWdcah2Zn08OujmZn-36" value="" style="endArrow=none;html=1;rounded=0;entryX=0.5;entryY=1;entryDx=0;entryDy=0;exitX=0.5;exitY=0;exitDx=0;exitDy=0;" parent="1" source="wsrLWdcah2Zn08OujmZn-31" target="iXq1CX7b5IGds2Jhsc0Z-5" edge="1">
                    <mxGeometry width="50" height="50" relative="1" as="geometry">
                        <mxPoint x="1120" y="380" as="sourcePoint"/>
                        <mxPoint x="1170" y="330" as="targetPoint"/>
                    </mxGeometry>
                </mxCell>
                <mxCell id="wsrLWdcah2Zn08OujmZn-38" value="Hazszam" style="ellipse;whiteSpace=wrap;html=1;" parent="1" vertex="1">
                    <mxGeometry x="1240" y="560" width="120" height="80" as="geometry"/>
                </mxCell>
                <mxCell id="wsrLWdcah2Zn08OujmZn-39" value="Utca" style="ellipse;whiteSpace=wrap;html=1;" parent="1" vertex="1">
                    <mxGeometry x="1080" y="560" width="120" height="80" as="geometry"/>
                </mxCell>
                <mxCell id="wsrLWdcah2Zn08OujmZn-40" value="Varos" style="ellipse;whiteSpace=wrap;html=1;" parent="1" vertex="1">
                    <mxGeometry x="920" y="560" width="120" height="80" as="geometry"/>
                </mxCell>
                <mxCell id="wsrLWdcah2Zn08OujmZn-41" value="" style="endArrow=none;html=1;rounded=0;entryX=0.5;entryY=1;entryDx=0;entryDy=0;exitX=0.5;exitY=0;exitDx=0;exitDy=0;" parent="1" source="wsrLWdcah2Zn08OujmZn-40" target="wsrLWdcah2Zn08OujmZn-32" edge="1">
                    <mxGeometry width="50" height="50" relative="1" as="geometry">
                        <mxPoint x="1070" y="410" as="sourcePoint"/>
                        <mxPoint x="1120" y="360" as="targetPoint"/>
                    </mxGeometry>
                </mxCell>
                <mxCell id="wsrLWdcah2Zn08OujmZn-42" value="" style="endArrow=none;html=1;rounded=0;entryX=0.5;entryY=1;entryDx=0;entryDy=0;exitX=0.5;exitY=0;exitDx=0;exitDy=0;" parent="1" source="wsrLWdcah2Zn08OujmZn-39" target="wsrLWdcah2Zn08OujmZn-32" edge="1">
                    <mxGeometry width="50" height="50" relative="1" as="geometry">
                        <mxPoint x="1070" y="410" as="sourcePoint"/>
                        <mxPoint x="1120" y="360" as="targetPoint"/>
                    </mxGeometry>
                </mxCell>
                <mxCell id="wsrLWdcah2Zn08OujmZn-43" value="" style="endArrow=none;html=1;rounded=0;entryX=0.5;entryY=1;entryDx=0;entryDy=0;exitX=0.5;exitY=0;exitDx=0;exitDy=0;" parent="1" source="wsrLWdcah2Zn08OujmZn-38" target="wsrLWdcah2Zn08OujmZn-32" edge="1">
                    <mxGeometry width="50" height="50" relative="1" as="geometry">
                        <mxPoint x="1070" y="410" as="sourcePoint"/>
                        <mxPoint x="1120" y="360" as="targetPoint"/>
                    </mxGeometry>
                </mxCell>
                <mxCell id="wsrLWdcah2Zn08OujmZn-44" value="" style="rounded=0;whiteSpace=wrap;html=1;direction=south;" parent="1" vertex="1">
                    <mxGeometry x="960" y="440" width="40" height="80" as="geometry"/>
                </mxCell>
                <mxCell id="wsrLWdcah2Zn08OujmZn-45" value="" style="rounded=0;whiteSpace=wrap;html=1;direction=south;" parent="1" vertex="1">
                    <mxGeometry x="1280" y="440" width="40" height="80" as="geometry"/>
                </mxCell>
                <mxCell id="wsrLWdcah2Zn08OujmZn-47" value="" style="rounded=0;whiteSpace=wrap;html=1;direction=south;" parent="1" vertex="1">
                    <mxGeometry x="1480" y="441.25" width="40" height="80" as="geometry"/>
                </mxCell>
                <mxCell id="wsrLWdcah2Zn08OujmZn-48" value="" style="rounded=0;whiteSpace=wrap;html=1;direction=south;" parent="1" vertex="1">
                    <mxGeometry x="1640.5" y="441.25" width="40" height="80" as="geometry"/>
                </mxCell>
                <mxCell id="wsrLWdcah2Zn08OujmZn-49" value="" style="endArrow=none;html=1;rounded=0;entryX=0.5;entryY=1;entryDx=0;entryDy=0;exitX=0;exitY=0.5;exitDx=0;exitDy=0;" parent="1" source="wsrLWdcah2Zn08OujmZn-45" target="wsrLWdcah2Zn08OujmZn-31" edge="1">
                    <mxGeometry width="50" height="50" relative="1" as="geometry">
                        <mxPoint x="1280" y="490" as="sourcePoint"/>
                        <mxPoint x="1330" y="440" as="targetPoint"/>
                    </mxGeometry>
                </mxCell>
                <mxCell id="wsrLWdcah2Zn08OujmZn-50" value="" style="endArrow=none;html=1;rounded=0;entryX=0.5;entryY=1;entryDx=0;entryDy=0;exitX=0;exitY=0.5;exitDx=0;exitDy=0;" parent="1" source="wsrLWdcah2Zn08OujmZn-44" target="wsrLWdcah2Zn08OujmZn-33" edge="1">
                    <mxGeometry width="50" height="50" relative="1" as="geometry">
                        <mxPoint x="1280" y="490" as="sourcePoint"/>
                        <mxPoint x="1330" y="440" as="targetPoint"/>
                    </mxGeometry>
                </mxCell>
                <mxCell id="wsrLWdcah2Zn08OujmZn-52" value="" style="endArrow=none;html=1;rounded=0;entryX=0.5;entryY=1;entryDx=0;entryDy=0;exitX=0;exitY=0.5;exitDx=0;exitDy=0;" parent="1" source="wsrLWdcah2Zn08OujmZn-47" target="wsrLWdcah2Zn08OujmZn-26" edge="1">
                    <mxGeometry width="50" height="50" relative="1" as="geometry">
                        <mxPoint x="1410" y="471.25" as="sourcePoint"/>
                        <mxPoint x="1460" y="421.25" as="targetPoint"/>
                    </mxGeometry>
                </mxCell>
                <mxCell id="wsrLWdcah2Zn08OujmZn-53" value="" style="endArrow=none;html=1;rounded=0;entryX=0.5;entryY=1;entryDx=0;entryDy=0;exitX=0;exitY=0.5;exitDx=0;exitDy=0;" parent="1" source="wsrLWdcah2Zn08OujmZn-48" target="wsrLWdcah2Zn08OujmZn-27" edge="1">
                    <mxGeometry width="50" height="50" relative="1" as="geometry">
                        <mxPoint x="1410" y="471.25" as="sourcePoint"/>
                        <mxPoint x="1460" y="421.25" as="targetPoint"/>
                    </mxGeometry>
                </mxCell>
                <mxCell id="3" value="" style="rounded=0;whiteSpace=wrap;html=1;direction=south;" vertex="1" parent="1">
                    <mxGeometry x="-960" y="680" width="40" height="80" as="geometry"/>
                </mxCell>
                <mxCell id="4" value="" style="rounded=0;whiteSpace=wrap;html=1;direction=south;" vertex="1" parent="1">
                    <mxGeometry x="-800" y="680" width="40" height="80" as="geometry"/>
                </mxCell>
                <mxCell id="5" value="" style="rounded=0;whiteSpace=wrap;html=1;direction=south;" vertex="1" parent="1">
                    <mxGeometry x="-640" y="680" width="40" height="80" as="geometry"/>
                </mxCell>
                <mxCell id="6" value="" style="rounded=0;whiteSpace=wrap;html=1;direction=south;" vertex="1" parent="1">
                    <mxGeometry x="560" y="640" width="40" height="80" as="geometry"/>
                </mxCell>
                <mxCell id="7" value="" style="rounded=0;whiteSpace=wrap;html=1;direction=south;" vertex="1" parent="1">
                    <mxGeometry x="720" y="640" width="40" height="80" as="geometry"/>
                </mxCell>
                <mxCell id="8" value="" style="rounded=0;whiteSpace=wrap;html=1;direction=south;" vertex="1" parent="1">
                    <mxGeometry x="960" y="680" width="40" height="80" as="geometry"/>
                </mxCell>
                <mxCell id="9" value="" style="rounded=0;whiteSpace=wrap;html=1;direction=south;" vertex="1" parent="1">
                    <mxGeometry x="1120" y="680" width="40" height="80" as="geometry"/>
                </mxCell>
                <mxCell id="10" value="" style="rounded=0;whiteSpace=wrap;html=1;direction=south;" vertex="1" parent="1">
                    <mxGeometry x="1280" y="680" width="40" height="80" as="geometry"/>
                </mxCell>
                <mxCell id="11" value="" style="endArrow=none;html=1;entryX=0.5;entryY=1;entryDx=0;entryDy=0;exitX=0;exitY=0.5;exitDx=0;exitDy=0;" edge="1" parent="1" source="8" target="wsrLWdcah2Zn08OujmZn-40">
                    <mxGeometry width="50" height="50" relative="1" as="geometry">
                        <mxPoint x="1050" y="670" as="sourcePoint"/>
                        <mxPoint x="1100" y="620" as="targetPoint"/>
                    </mxGeometry>
                </mxCell>
                <mxCell id="12" value="" style="endArrow=none;html=1;entryX=0.5;entryY=1;entryDx=0;entryDy=0;exitX=0;exitY=0.5;exitDx=0;exitDy=0;" edge="1" parent="1" source="9" target="wsrLWdcah2Zn08OujmZn-39">
                    <mxGeometry width="50" height="50" relative="1" as="geometry">
                        <mxPoint x="989.9999999999995" y="690" as="sourcePoint"/>
                        <mxPoint x="990.0000000000005" y="650" as="targetPoint"/>
                    </mxGeometry>
                </mxCell>
                <mxCell id="13" value="" style="endArrow=none;html=1;entryX=0.5;entryY=1;entryDx=0;entryDy=0;" edge="1" parent="1" source="10" target="wsrLWdcah2Zn08OujmZn-38">
                    <mxGeometry width="50" height="50" relative="1" as="geometry">
                        <mxPoint x="1149.9999999999995" y="690" as="sourcePoint"/>
                        <mxPoint x="1149.9999999999995" y="650" as="targetPoint"/>
                    </mxGeometry>
                </mxCell>
                <mxCell id="14" value="" style="endArrow=none;html=1;entryX=0.5;entryY=1;entryDx=0;entryDy=0;exitX=0;exitY=0.5;exitDx=0;exitDy=0;" edge="1" parent="1" source="7" target="wsrLWdcah2Zn08OujmZn-23">
                    <mxGeometry width="50" height="50" relative="1" as="geometry">
                        <mxPoint x="670" y="670" as="sourcePoint"/>
                        <mxPoint x="720" y="620" as="targetPoint"/>
                    </mxGeometry>
                </mxCell>
                <mxCell id="15" value="" style="endArrow=none;html=1;entryX=0.5;entryY=1;entryDx=0;entryDy=0;exitX=0;exitY=0.5;exitDx=0;exitDy=0;" edge="1" parent="1" source="6" target="wsrLWdcah2Zn08OujmZn-22">
                    <mxGeometry width="50" height="50" relative="1" as="geometry">
                        <mxPoint x="750" y="650" as="sourcePoint"/>
                        <mxPoint x="750" y="610" as="targetPoint"/>
                    </mxGeometry>
                </mxCell>
                <mxCell id="16" value="" style="endArrow=none;html=1;entryX=0.5;entryY=1;entryDx=0;entryDy=0;exitX=0;exitY=0.5;exitDx=0;exitDy=0;" edge="1" parent="1" source="5" target="iXq1CX7b5IGds2Jhsc0Z-64">
                    <mxGeometry width="50" height="50" relative="1" as="geometry">
                        <mxPoint x="-730" y="710" as="sourcePoint"/>
                        <mxPoint x="-680" y="660" as="targetPoint"/>
                    </mxGeometry>
                </mxCell>
                <mxCell id="17" value="" style="endArrow=none;html=1;entryX=0.5;entryY=1;entryDx=0;entryDy=0;exitX=0;exitY=0.5;exitDx=0;exitDy=0;" edge="1" parent="1" source="4" target="iXq1CX7b5IGds2Jhsc0Z-65">
                    <mxGeometry width="50" height="50" relative="1" as="geometry">
                        <mxPoint x="-610" y="690" as="sourcePoint"/>
                        <mxPoint x="-610" y="650" as="targetPoint"/>
                    </mxGeometry>
                </mxCell>
                <mxCell id="18" value="" style="endArrow=none;html=1;entryX=0.5;entryY=1;entryDx=0;entryDy=0;exitX=0;exitY=0.5;exitDx=0;exitDy=0;" edge="1" parent="1" source="3" target="iXq1CX7b5IGds2Jhsc0Z-66">
                    <mxGeometry width="50" height="50" relative="1" as="geometry">
                        <mxPoint x="-770" y="690" as="sourcePoint"/>
                        <mxPoint x="-770" y="650" as="targetPoint"/>
                    </mxGeometry>
                </mxCell>
                <mxCell id="19" value="" style="endArrow=none;dashed=1;html=1;dashPattern=1 3;strokeWidth=2;exitX=0;exitY=1;exitDx=0;exitDy=0;startArrow=classic;startFill=1;" edge="1" parent="1" source="iXq1CX7b5IGds2Jhsc0Z-21">
                    <mxGeometry width="50" height="50" relative="1" as="geometry">
                        <mxPoint x="-1040" y="360" as="sourcePoint"/>
                        <mxPoint x="-160" y="240" as="targetPoint"/>
                        <Array as="points">
                            <mxPoint x="-1040" y="260"/>
                            <mxPoint x="-1040" y="820"/>
                            <mxPoint x="-60" y="820"/>
                            <mxPoint x="-60" y="240"/>
                        </Array>
                    </mxGeometry>
                </mxCell>
                <mxCell id="20" value="" style="endArrow=none;dashed=1;html=1;dashPattern=1 3;strokeWidth=2;exitX=0;exitY=0.5;exitDx=0;exitDy=0;startArrow=classic;startFill=1;" edge="1" parent="1" source="iXq1CX7b5IGds2Jhsc0Z-21">
                    <mxGeometry width="50" height="50" relative="1" as="geometry">
                        <mxPoint x="-990" y="340" as="sourcePoint"/>
                        <mxPoint x="320" y="240" as="targetPoint"/>
                        <Array as="points">
                            <mxPoint x="-1080" y="240"/>
                            <mxPoint x="-1080" y="860"/>
                            <mxPoint x="420" y="870"/>
                            <mxPoint x="420" y="240"/>
                        </Array>
                    </mxGeometry>
                </mxCell>
                <mxCell id="21" value="" style="endArrow=none;dashed=1;html=1;dashPattern=1 3;strokeWidth=2;exitX=0;exitY=0;exitDx=0;exitDy=0;startArrow=classic;startFill=1;" edge="1" parent="1" source="iXq1CX7b5IGds2Jhsc0Z-21">
                    <mxGeometry width="50" height="50" relative="1" as="geometry">
                        <mxPoint x="-953.5294117647059" y="320" as="sourcePoint"/>
                        <mxPoint x="840" y="240" as="targetPoint"/>
                        <Array as="points">
                            <mxPoint x="-1120" y="220"/>
                            <mxPoint x="-1120" y="880"/>
                            <mxPoint x="890" y="890"/>
                            <mxPoint x="890" y="240"/>
                        </Array>
                    </mxGeometry>
                </mxCell>
                <mxCell id="24" value="&lt;u&gt;Gykod&lt;/u&gt;" style="rhombus;whiteSpace=wrap;html=1;" vertex="1" parent="1">
                    <mxGeometry x="480" y="200" width="80" height="80" as="geometry"/>
                </mxCell>
                <mxCell id="25" value="ESZ" style="rhombus;whiteSpace=wrap;html=1;" vertex="1" parent="1">
                    <mxGeometry x="280" y="200" width="80" height="80" as="geometry"/>
                </mxCell>
                <mxCell id="26" value="EF" style="rhombus;whiteSpace=wrap;html=1;" vertex="1" parent="1">
                    <mxGeometry x="-200" y="200" width="80" height="80" as="geometry"/>
                </mxCell>
                <mxCell id="27" value="" style="endArrow=none;html=1;entryX=0;entryY=0.5;entryDx=0;entryDy=0;exitX=1;exitY=0.5;exitDx=0;exitDy=0;" edge="1" parent="1" source="iXq1CX7b5IGds2Jhsc0Z-4" target="26">
                    <mxGeometry width="50" height="50" relative="1" as="geometry">
                        <mxPoint x="-60" y="420" as="sourcePoint"/>
                        <mxPoint x="-10" y="370" as="targetPoint"/>
                    </mxGeometry>
                </mxCell>
                <mxCell id="28" value="" style="endArrow=none;html=1;entryX=0;entryY=0.5;entryDx=0;entryDy=0;exitX=1;exitY=0.5;exitDx=0;exitDy=0;" edge="1" parent="1">
                    <mxGeometry width="50" height="50" relative="1" as="geometry">
                        <mxPoint x="240" y="239.38" as="sourcePoint"/>
                        <mxPoint x="280" y="239.38" as="targetPoint"/>
                    </mxGeometry>
                </mxCell>
                <mxCell id="30" value="" style="endArrow=none;html=1;entryX=0;entryY=0.5;entryDx=0;entryDy=0;exitX=1;exitY=0.5;exitDx=0;exitDy=0;" edge="1" parent="1">
                    <mxGeometry width="50" height="50" relative="1" as="geometry">
                        <mxPoint x="560" y="239.37" as="sourcePoint"/>
                        <mxPoint x="600" y="239.37" as="targetPoint"/>
                    </mxGeometry>
                </mxCell>
                <mxCell id="31" value="&lt;u&gt;Vkod&lt;/u&gt;" style="rhombus;whiteSpace=wrap;html=1;" vertex="1" parent="1">
                    <mxGeometry x="960" y="200" width="80" height="80" as="geometry"/>
                </mxCell>
                <mxCell id="32" value="" style="endArrow=none;html=1;rounded=0;entryX=0;entryY=0.5;entryDx=0;entryDy=0;exitX=1;exitY=0.5;exitDx=0;exitDy=0;" edge="1" parent="1">
                    <mxGeometry width="50" height="50" relative="1" as="geometry">
                        <mxPoint x="1039" y="239.38" as="sourcePoint"/>
                        <mxPoint x="1080" y="239.38" as="targetPoint"/>
                    </mxGeometry>
                </mxCell>
                <mxCell id="33" value="&lt;u&gt;Rkod&lt;/u&gt;" style="rhombus;whiteSpace=wrap;html=1;" vertex="1" parent="1">
                    <mxGeometry x="1400" y="198.75" width="80" height="80" as="geometry"/>
                </mxCell>
                <mxCell id="34" value="RV" style="rhombus;whiteSpace=wrap;html=1;" vertex="1" parent="1">
                    <mxGeometry x="1680.5" y="198.75" width="80" height="80" as="geometry"/>
                </mxCell>
                <mxCell id="35" value="" style="endArrow=none;html=1;entryX=0;entryY=0.5;entryDx=0;entryDy=0;exitX=1;exitY=0.5;exitDx=0;exitDy=0;" edge="1" parent="1" source="33" target="iXq1CX7b5IGds2Jhsc0Z-6">
                    <mxGeometry width="50" height="50" relative="1" as="geometry">
                        <mxPoint x="1390" y="580" as="sourcePoint"/>
                        <mxPoint x="1440" y="530" as="targetPoint"/>
                    </mxGeometry>
                </mxCell>
                <mxCell id="36" value="" style="endArrow=none;html=1;entryX=0;entryY=0.5;entryDx=0;entryDy=0;exitX=1;exitY=0.5;exitDx=0;exitDy=0;" edge="1" parent="1" source="iXq1CX7b5IGds2Jhsc0Z-6" target="34">
                    <mxGeometry width="50" height="50" relative="1" as="geometry">
                        <mxPoint x="1390" y="580" as="sourcePoint"/>
                        <mxPoint x="1440" y="530" as="targetPoint"/>
                    </mxGeometry>
                </mxCell>
                <mxCell id="37" value="" style="endArrow=none;dashed=1;html=1;dashPattern=1 3;strokeWidth=2;entryX=0;entryY=0.5;entryDx=0;entryDy=0;exitX=0;exitY=0.5;exitDx=0;exitDy=0;startArrow=classic;startFill=1;" edge="1" parent="1" source="31" target="33">
                    <mxGeometry width="50" height="50" relative="1" as="geometry">
                        <mxPoint x="1410" y="880" as="sourcePoint"/>
                        <mxPoint x="1440" y="530" as="targetPoint"/>
                        <Array as="points">
                            <mxPoint x="910" y="239"/>
                            <mxPoint x="910" y="880"/>
                            <mxPoint x="1370" y="880"/>
                            <mxPoint x="1370" y="239"/>
                        </Array>
                    </mxGeometry>
                </mxCell>
                <mxCell id="38" value="" style="endArrow=none;dashed=1;html=1;dashPattern=1 3;strokeWidth=2;entryX=1;entryY=0.5;entryDx=0;entryDy=0;exitX=0.5;exitY=0;exitDx=0;exitDy=0;startArrow=classic;startFill=1;" edge="1" parent="1" source="iXq1CX7b5IGds2Jhsc0Z-21" target="34">
                    <mxGeometry width="50" height="50" relative="1" as="geometry">
                        <mxPoint x="-1200" y="150" as="sourcePoint"/>
                        <mxPoint x="1240" y="610" as="targetPoint"/>
                        <Array as="points">
                            <mxPoint x="-1160" y="200"/>
                            <mxPoint x="-1160" y="900"/>
                            <mxPoint x="1820" y="900"/>
                            <mxPoint x="1820" y="239"/>
                        </Array>
                    </mxGeometry>
                </mxCell>
            </root>
        </mxGraphModel>
    </diagram>
</mxfile>